# xmcd
#
# Track frame offsets:
#	150
#	48924
#	105814
#	127121
#	154512
#	176355
#	190293
#
# Disc length: 2786 seconds
#
# Revision: 0
# Processed by: cddbd v1.5.2PL0 Copyright (c) Steve Scherf et al.
# Submitted via: audiograbber 1.83.01
#
DISCID=4d0ae007
DTITLE=Grateful Dead - 76-06-15 Beacon Theatre, New York NY
DYEAR=1900
DGENRE=
TTITLE0=Friend Of The Devil
TTITLE1=Dancing In The Streets
TTITLE2=The Wheel
TTITLE3=Sugar Magnolia
TTITLE4=Scarlet Begonias
TTITLE5=Sunshine Daydream
TTITLE6=Johnny B Goode
EXTD=
EXTT0=
EXTT1=
EXTT2=
EXTT3=
EXTT4=
EXTT5=
EXTT6=
PLAYORDER=
